# xmcd
#
# Track frame offsets: 
#        150
#        14504
#        39296
#        56763
#        70386
#        83556
#        101863
#        114145
#        134884
#        153539
#        165074
#        188223
#
# Disc length: 2768 seconds
#
# Revision: 1
# Processed by: cddbd v1.5.2PL0 Copyright (c) Steve Scherf et al.
# Submitted via: ExactAudioCopy v0.95b4
#
DISCID=9a0ace0c
DTITLE=Omar and The Howlers - Swingland
DYEAR=1998
DGENRE=
TTITLE0=Mr. Blues Is Coming
TTITLE1=Just Like A Woman
TTITLE2=Hit The Road Jack
TTITLE3=Yellow Coat
TTITLE4=Don't Loose Your Cool
TTITLE5=Work Song
TTITLE6=So Mean To Me
TTITLE7=Move Up Country
TTITLE8=Daddy Daddy Ya
TTITLE9=Quiet Wiskey
TTITLE10=One Room Country Shack
TTITLE11=Alligator Wine
EXTD=
EXTT0=
EXTT1=
EXTT2=
EXTT3=
EXTT4=
EXTT5=
EXTT6=
EXTT7=
EXTT8=
EXTT9=
EXTT10=
EXTT11=
PLAYORDER=
